<svg width="231" height="48" viewBox="0 0 231 48" fill="none" xmlns="http://www.w3.org/2000/svg">
<path d="M48.4697 0H0.469727V4.23831H48.4697V0Z" fill="#C0972D"/>
<path d="M8.59237 31.2983L10.6882 29.2025V29.0162H10.8652L17.5813 22.3094L19.3139 20.5768L21.0465 18.8349L21.0558 18.8256H36.0249H48.4697V14.5873H44.2314H19.3046L17.1808 16.7111L0.469727 33.4128H6.46856L8.59237 31.2983Z" fill="#C0972D"/>
<path d="M0.469727 43.7617V48H48.4697V45.8762V43.7617V33.4127V31.2982V29.1744H21.0465V33.4127H44.2314V43.7617H0.469727Z" fill="#C0972D"/>
<path d="M66.4697 22.5072H68.3119V14.6665H75.6898V13.1147H68.3119V7.92386H77.6772V6.28131H66.4697V22.5072Z" fill="#002E3B"/>
<path d="M79.5557 7.89664H81.7699V20.8918H79.5557V22.5072H85.8355V20.8918H83.6121V7.89664H85.8355V6.28131H79.5557V7.89664Z" fill="#002E3B"/>
<path d="M100.618 21.2729C100.392 21.1368 100.237 20.9008 100.174 20.556C100.11 20.2111 100.065 19.8028 100.047 19.349C100.029 18.8862 99.9923 18.4143 99.9288 17.9334C99.8743 17.4524 99.7564 16.9986 99.5839 16.5812C99.4115 16.1547 99.1302 15.8189 98.749 15.5557C98.3679 15.2926 97.8234 15.1655 97.1337 15.1655C97.9777 15.1655 98.6855 14.9749 99.2482 14.5938C99.8108 14.2127 100.237 13.6954 100.519 13.0511C100.8 12.4068 100.936 11.6989 100.936 10.9366C100.936 9.74783 100.682 8.81311 100.174 8.14157C99.6656 7.47003 98.9305 6.99814 97.9868 6.71682C97.0339 6.4355 95.8723 6.29938 94.4839 6.29938H89.1206V22.5252H90.99V15.5194C92.3694 15.5013 93.5128 15.4922 94.4203 15.4922C95.3278 15.4922 96.0447 15.5557 96.5801 15.6919C97.1156 15.828 97.5149 16.0549 97.778 16.3816C98.0412 16.7083 98.2045 17.1711 98.2862 17.7791C98.3588 18.3871 98.4042 19.1675 98.4042 20.1295C98.4042 20.919 98.5312 21.5089 98.7944 21.9172C99.0576 22.3165 99.3752 22.5797 99.7563 22.6977C100.137 22.8156 100.51 22.8338 100.863 22.7703C101.217 22.7067 101.481 22.5888 101.653 22.4345V21.2275C101.19 21.4 100.845 21.4181 100.618 21.282V21.2729ZM94.7652 14.0947H90.99V7.86933H94.1027C95.2189 7.86933 96.1536 7.93286 96.9159 8.0599C97.6782 8.18695 98.259 8.46827 98.6583 8.91294C99.0667 9.3576 99.2663 10.0655 99.2663 11.0455C99.2663 11.8713 99.103 12.4975 98.7763 12.9331C98.4496 13.3687 97.9504 13.6682 97.288 13.8406C96.6255 14.013 95.7816 14.1038 94.7652 14.1038V14.0947Z" fill="#002E3B"/>
<path d="M114.049 14.9568C113.414 14.612 112.715 14.3307 111.962 14.1038C111.2 13.886 110.438 13.6863 109.657 13.5139C108.877 13.3415 108.178 13.1328 107.543 12.8968C106.907 12.6609 106.399 12.3342 106.018 11.9349C105.637 11.5356 105.446 10.9911 105.446 10.3196C105.483 9.54821 105.891 8.92205 106.671 8.45016C107.452 7.96919 108.441 7.73324 109.657 7.73324C110.038 7.73324 110.492 7.78769 111 7.88751C111.508 7.99641 112.007 8.17791 112.488 8.432C112.969 8.69517 113.36 9.0491 113.668 9.51191C113.977 9.97473 114.113 10.5737 114.077 11.2997H115.892C115.928 10.129 115.674 9.14892 115.111 8.3594C114.558 7.56989 113.813 6.98003 112.897 6.58981C111.971 6.19959 110.955 5.99994 109.839 5.99994C108.668 5.99994 107.606 6.17237 106.671 6.50814C105.728 6.84391 104.984 7.32487 104.421 7.93289C103.867 8.54998 103.568 9.28504 103.532 10.1562C103.495 11.0637 103.659 11.8079 104.022 12.3886C104.385 12.9785 104.884 13.4413 105.519 13.7862C106.154 14.131 106.853 14.4123 107.606 14.6392C108.368 14.857 109.131 15.0657 109.893 15.2563C110.664 15.4469 111.363 15.6647 112.007 15.9006C112.652 16.1456 113.16 16.4633 113.55 16.8807C113.931 17.2981 114.113 17.8336 114.095 18.5051C114.095 18.6957 114.04 18.9407 113.922 19.2402C113.804 19.5396 113.605 19.8391 113.305 20.1295C113.006 20.429 112.588 20.674 112.035 20.8736C111.49 21.0733 110.791 21.1731 109.947 21.1731C108.931 21.1731 108.096 21.0551 107.443 20.8283C106.789 20.6014 106.281 20.311 105.918 19.9662C105.555 19.6213 105.292 19.2674 105.129 18.8953C104.965 18.5323 104.866 18.2147 104.829 17.9425C104.793 17.6702 104.775 17.5069 104.775 17.4524H102.933C102.933 18.3962 103.132 19.2129 103.522 19.9026C103.913 20.5923 104.448 21.155 105.111 21.5906C105.773 22.0262 106.508 22.3438 107.325 22.5525C108.142 22.7612 108.976 22.8701 109.82 22.8701C110.991 22.8701 112.044 22.6977 112.96 22.3619C113.886 22.0262 114.621 21.5452 115.184 20.919C115.737 20.2929 116.037 19.5306 116.073 18.6322C116.109 17.7065 115.946 16.9533 115.583 16.3544C115.22 15.7554 114.721 15.2835 114.086 14.9387L114.049 14.9568Z" fill="#002E3B"/>
<path d="M116.844 7.89664H122.062V22.5072H123.904V7.89664H129.095V6.28131H116.844V7.89664Z" fill="#002E3B"/>
<path d="M147.136 14.9568C146.501 14.612 145.802 14.3307 145.049 14.1038C144.287 13.886 143.524 13.6863 142.744 13.5139C141.964 13.3415 141.265 13.1328 140.63 12.8968C139.994 12.6609 139.486 12.3342 139.105 11.9349C138.724 11.5265 138.533 10.9911 138.533 10.3196C138.57 9.54821 138.978 8.92205 139.758 8.45016C140.539 7.96919 141.528 7.73324 142.744 7.73324C143.125 7.73324 143.579 7.78769 144.087 7.88751C144.595 7.99641 145.094 8.17791 145.575 8.432C146.056 8.69517 146.447 9.0491 146.755 9.51191C147.064 9.97473 147.2 10.5737 147.163 11.2997H148.978C149.015 10.129 148.761 9.14892 148.198 8.3594C147.644 7.56989 146.9 6.98003 145.984 6.58981C145.058 6.19959 144.042 5.99994 142.926 5.99994C141.755 5.99994 140.693 6.17237 139.758 6.50814C138.815 6.84391 138.07 7.32487 137.508 7.93289C136.954 8.54998 136.655 9.28504 136.618 10.1562C136.582 11.0637 136.746 11.8079 137.109 12.3886C137.472 12.9785 137.971 13.4413 138.606 13.7862C139.241 14.131 139.94 14.4123 140.693 14.6392C141.455 14.857 142.218 15.0657 142.98 15.2563C143.751 15.4469 144.45 15.6647 145.094 15.9006C145.739 16.1456 146.247 16.4633 146.637 16.8807C147.018 17.2981 147.2 17.8336 147.182 18.5051C147.182 18.6957 147.127 18.9407 147.009 19.2402C146.891 19.5396 146.692 19.8391 146.392 20.1295C146.093 20.429 145.675 20.674 145.122 20.8736C144.577 21.0733 143.878 21.1731 143.034 21.1731C142.018 21.1731 141.183 21.0551 140.53 20.8283C139.876 20.6014 139.368 20.311 139.005 19.9662C138.642 19.6213 138.379 19.2674 138.216 18.8953C138.052 18.5323 137.952 18.2147 137.916 17.9425C137.88 17.6702 137.862 17.5069 137.862 17.4524H136.02C136.02 18.3962 136.219 19.2129 136.609 19.9026C137 20.5923 137.535 21.155 138.198 21.5906C138.86 22.0262 139.595 22.3438 140.412 22.5525C141.229 22.7612 142.063 22.8701 142.907 22.8701C144.078 22.8701 145.131 22.6977 146.047 22.3619C146.973 22.0262 147.708 21.5452 148.271 20.919C148.824 20.2929 149.124 19.5306 149.16 18.6322C149.196 17.7065 149.033 16.9533 148.67 16.3544C148.307 15.7554 147.808 15.2835 147.173 14.9387L147.136 14.9568Z" fill="#002E3B"/>
<path d="M160.159 6.28131L155.748 14.8752L151.338 6.28131H149.269L154.768 16.5541V22.5072H156.638V16.5541L162.201 6.28131H160.159Z" fill="#002E3B"/>
<path d="M174.969 21.6723H174.914L166.611 6.28131H163.353V22.5072H165.232V7.1162H165.286L173.354 22.5072H176.847V6.28131H174.969V21.6723Z" fill="#002E3B"/>
<path d="M181.367 15.0749H188.545V13.514H181.367V7.92386H190.414V6.28131H179.552V22.5072H190.705V20.9554H181.367V15.0749Z" fill="#002E3B"/>
<path d="M204.399 21.2729C204.172 21.1368 204.018 20.9008 203.954 20.556C203.891 20.2111 203.845 19.8028 203.827 19.349C203.809 18.8953 203.773 18.4143 203.709 17.9334C203.655 17.4524 203.537 16.9986 203.364 16.5812C203.192 16.1547 202.91 15.8189 202.529 15.5557C202.148 15.2926 201.604 15.1655 200.914 15.1655C201.758 15.1655 202.466 14.9749 203.028 14.5938C203.591 14.2127 204.018 13.6954 204.299 13.0511C204.58 12.4068 204.716 11.6989 204.716 10.9366C204.716 9.74783 204.462 8.81311 203.954 8.14157C203.446 7.47003 202.711 6.99814 201.767 6.71682C200.814 6.4355 199.653 6.29938 198.264 6.29938H192.901V22.5252H194.77V15.5194C196.15 15.5013 197.293 15.4922 198.201 15.4922C199.108 15.4922 199.825 15.5557 200.36 15.6919C200.896 15.828 201.295 16.0549 201.558 16.3816C201.821 16.7083 201.985 17.1711 202.066 17.7791C202.139 18.3871 202.184 19.1675 202.184 20.1295C202.184 20.919 202.312 21.5089 202.575 21.9172C202.838 22.3165 203.155 22.5797 203.537 22.6977C203.918 22.8156 204.29 22.8338 204.644 22.7703C204.998 22.7067 205.261 22.5888 205.433 22.4345V21.2275C204.97 21.4 204.626 21.4181 204.399 21.282V21.2729ZM198.545 14.0947H194.77V7.86933H197.883C198.999 7.86933 199.934 7.93286 200.696 8.0599C201.458 8.18695 202.039 8.46827 202.439 8.91294C202.847 9.3576 203.047 10.0655 203.047 11.0455C203.047 11.8713 202.883 12.4975 202.557 12.9331C202.23 13.3687 201.731 13.6682 201.068 13.8406C200.406 14.013 199.562 14.1038 198.545 14.1038V14.0947Z" fill="#002E3B"/>
<path d="M215.751 16.309H220.216C220.098 17.3617 219.79 18.251 219.281 18.9589C218.773 19.6667 218.12 20.2021 217.321 20.556C216.523 20.91 215.615 21.0915 214.599 21.0915C212.62 21.0915 211.078 20.5016 209.971 19.3309C208.863 18.1603 208.31 16.5087 208.31 14.3761C208.31 12.2435 208.836 10.7189 209.88 9.52101C210.923 8.32313 212.466 7.72418 214.508 7.72418C215.47 7.72418 216.323 7.86938 217.076 8.15978C217.829 8.45017 218.465 8.88577 218.982 9.47563C219.499 10.0655 219.853 10.8369 220.053 11.7988L221.841 11.5991C221.496 9.7751 220.706 8.38665 219.463 7.43379C218.22 6.48093 216.577 6.00903 214.517 6.00903C212.92 6.00903 211.532 6.3448 210.334 7.00727C209.145 7.66973 208.219 8.63167 207.557 9.90215C206.894 11.1726 206.549 12.6972 206.531 14.485C206.531 16.2727 206.84 17.7882 207.466 19.0405C208.092 20.2929 208.981 21.2457 210.134 21.9082C211.286 22.5707 212.639 22.9064 214.2 22.9064C215.161 22.9064 215.996 22.7794 216.722 22.5162C217.439 22.253 218.047 21.9263 218.555 21.518C219.055 21.1187 219.454 20.6831 219.753 20.2203C220.053 19.7575 220.262 19.34 220.37 18.9498H220.425L220.86 22.5253H222.185V14.8843H215.76V16.3272L215.751 16.309Z" fill="#002E3B"/>
<path d="M230.707 7.89664V6.28131H224.427V7.89664H226.641V20.8918H224.427V22.5072H230.707V20.8918H228.483V7.89664H230.707Z" fill="#002E3B"/>
<path d="M69.5461 41.9909C68.6114 41.9909 67.8673 41.7187 67.3046 41.1742C66.751 40.6297 66.4697 39.8402 66.4697 38.7966V36.9997C66.4697 35.9561 66.751 35.1666 67.3046 34.6221C67.8582 34.0776 68.6023 33.8054 69.5461 33.8054C70.4899 33.8054 71.1887 34.0686 71.6878 34.5858C72.1869 35.1031 72.4319 35.8109 72.4319 36.7094V36.7638H71.4972V36.6731C71.4972 36.0832 71.3339 35.5931 71.0162 35.2211C70.6986 34.849 70.2086 34.6494 69.537 34.6494C68.8655 34.6494 68.3482 34.8581 67.9762 35.2664C67.6041 35.6748 67.4135 36.2465 67.4135 36.9816V38.8238C67.4135 39.5589 67.6041 40.1306 67.9762 40.5389C68.3482 40.9473 68.8746 41.156 69.537 41.156C70.1995 41.156 70.6986 40.9655 71.0162 40.5843C71.3339 40.2032 71.4972 39.7222 71.4972 39.1323V38.9508H72.4319V39.096C72.4319 39.9944 72.1869 40.7023 71.6878 41.2196C71.1887 41.7368 70.4717 42 69.5461 42V41.9909Z" fill="#002E3B"/>
<path d="M80.1457 41.9909C79.211 41.9909 78.4578 41.7187 77.9042 41.1742C77.3507 40.6297 77.0693 39.8402 77.0693 38.7966V36.9997C77.0693 35.9561 77.3507 35.1666 77.9042 34.6221C78.4669 34.0776 79.211 33.8054 80.1457 33.8054C81.0804 33.8054 81.8427 34.0776 82.3963 34.6221C82.9499 35.1666 83.2312 35.9561 83.2312 36.9997V38.7966C83.2312 39.8402 82.9499 40.6297 82.3963 41.1742C81.8336 41.7187 81.0895 41.9909 80.1457 41.9909ZM80.1457 41.147C80.8263 41.147 81.3527 40.9382 81.7338 40.5299C82.1059 40.1215 82.2965 39.5498 82.2965 38.8238V36.9544C82.2965 36.2284 82.1059 35.6567 81.7338 35.2483C81.3617 34.8399 80.8354 34.6312 80.1457 34.6312C79.456 34.6312 78.9478 34.8399 78.5758 35.2483C78.2037 35.6567 78.0131 36.2284 78.0131 36.9544V38.8238C78.0131 39.5498 78.2037 40.1215 78.5758 40.5299C78.9478 40.9382 79.4742 41.147 80.1457 41.147Z" fill="#002E3B"/>
<path d="M88.186 41.8366V33.9687H90.0192L92.7598 41.2467H92.905V33.9687H93.8397V41.8366H92.0066L89.275 34.5495H89.1207V41.8366H88.186Z" fill="#002E3B"/>
<path d="M101.644 41.9909C101.072 41.9909 100.564 41.8911 100.119 41.6915C99.6657 41.4918 99.3118 41.1833 99.0577 40.7749C98.8036 40.3665 98.6675 39.8583 98.6675 39.2412V39.0053H99.6022V39.2412C99.6022 39.8946 99.7928 40.3756 100.174 40.6932C100.555 41.0108 101.045 41.1742 101.644 41.1742C102.243 41.1742 102.724 41.0381 103.051 40.7567C103.368 40.4754 103.532 40.1306 103.532 39.7131C103.532 39.4227 103.459 39.1868 103.314 39.0144C103.169 38.842 102.96 38.6968 102.697 38.5879C102.434 38.479 102.125 38.3791 101.771 38.2975L101.19 38.1523C100.737 38.0343 100.328 37.8891 99.9743 37.7167C99.6203 37.5442 99.3481 37.3174 99.1485 37.0361C98.9488 36.7547 98.849 36.3917 98.849 35.9471C98.849 35.5024 98.9579 35.1213 99.1847 34.8036C99.4025 34.486 99.7202 34.2319 100.119 34.0595C100.519 33.8871 100.982 33.7963 101.508 33.7963C102.034 33.7963 102.515 33.8871 102.942 34.0686C103.368 34.2501 103.695 34.5223 103.94 34.8762C104.185 35.2301 104.303 35.6839 104.303 36.2193V36.6912H103.368V36.2193C103.368 35.8382 103.287 35.5296 103.123 35.2937C102.96 35.0577 102.742 34.8853 102.461 34.7764C102.179 34.6675 101.862 34.604 101.499 34.604C100.982 34.604 100.564 34.722 100.247 34.9488C99.9289 35.1757 99.7746 35.5024 99.7746 35.9198C99.7746 36.2012 99.8381 36.419 99.9743 36.5914C100.11 36.7638 100.301 36.8999 100.546 37.0088C100.791 37.1177 101.09 37.2176 101.435 37.2992L102.016 37.4444C102.47 37.5442 102.887 37.6713 103.25 37.8437C103.613 38.0161 103.904 38.243 104.121 38.5334C104.339 38.8238 104.448 39.1959 104.448 39.6587C104.448 40.1215 104.33 40.5299 104.103 40.8747C103.867 41.2196 103.541 41.4918 103.123 41.6824C102.697 41.873 102.207 41.9728 101.635 41.9728L101.644 41.9909Z" fill="#002E3B"/>
<path d="M111.218 41.8366V34.8217H108.686V33.9687H114.694V34.8217H112.162V41.8366H111.218Z" fill="#002E3B"/>
<path d="M119.267 41.8366V33.9687H122.452C122.942 33.9687 123.369 34.0504 123.741 34.2228C124.113 34.3952 124.403 34.6312 124.612 34.9397C124.821 35.2482 124.93 35.6203 124.93 36.0559V36.183C124.93 36.7002 124.803 37.1086 124.558 37.4081C124.313 37.7075 124.022 37.9072 123.677 38.0161V38.1704C123.95 38.1704 124.168 38.2611 124.349 38.4335C124.531 38.606 124.612 38.86 124.612 39.1958V41.8366H123.677V39.3047C123.677 39.0778 123.614 38.9054 123.496 38.7874C123.369 38.6695 123.187 38.6059 122.942 38.6059H120.22V41.8366H119.276H119.267ZM120.211 37.7529H122.362C122.879 37.7529 123.278 37.6259 123.56 37.3808C123.841 37.1267 123.986 36.7819 123.986 36.3282V36.2465C123.986 35.7927 123.85 35.4479 123.569 35.1938C123.287 34.9397 122.888 34.8217 122.362 34.8217H120.211V37.7529Z" fill="#002E3B"/>
<path d="M132.58 41.9909C131.999 41.9909 131.482 41.882 131.056 41.6733C130.629 41.4645 130.284 41.1469 130.039 40.7385C129.794 40.3302 129.676 39.8129 129.676 39.2049V33.9687H130.611V39.223C130.611 39.8674 130.783 40.3483 131.128 40.675C131.473 41.0017 131.954 41.156 132.58 41.156C133.206 41.156 133.687 40.9926 134.032 40.675C134.377 40.3574 134.549 39.8674 134.549 39.223V33.9687H135.493V39.2049C135.493 39.8129 135.375 40.3211 135.13 40.7385C134.885 41.156 134.549 41.4645 134.114 41.6733C133.678 41.882 133.161 41.9909 132.58 41.9909Z" fill="#002E3B"/>
<path d="M143.443 41.9909C142.508 41.9909 141.764 41.7187 141.201 41.1742C140.648 40.6297 140.366 39.8402 140.366 38.7966V36.9997C140.366 35.9561 140.648 35.1666 141.201 34.6221C141.755 34.0776 142.499 33.8054 143.443 33.8054C144.386 33.8054 145.085 34.0686 145.584 34.5858C146.083 35.1031 146.328 35.8109 146.328 36.7094V36.7638H145.394V36.6731C145.394 36.0832 145.23 35.5931 144.913 35.2211C144.595 34.849 144.105 34.6494 143.434 34.6494C142.762 34.6494 142.245 34.8581 141.873 35.2664C141.501 35.6748 141.31 36.2465 141.31 36.9816V38.8238C141.31 39.5589 141.501 40.1306 141.873 40.5389C142.245 40.9473 142.771 41.156 143.434 41.156C144.096 41.156 144.595 40.9655 144.913 40.5843C145.23 40.2032 145.394 39.7222 145.394 39.1323V38.9508H146.328V39.096C146.328 39.9944 146.083 40.7023 145.584 41.2196C145.085 41.7368 144.368 42 143.443 42V41.9909Z" fill="#002E3B"/>
<path d="M153.126 41.8366V34.8217H150.594V33.9687H156.601V34.8217H154.069V41.8366H153.126Z" fill="#002E3B"/>
<path d="M161.175 41.8366V33.9687H162.119V41.8366H161.175Z" fill="#002E3B"/>
<path d="M170.15 41.9909C169.215 41.9909 168.462 41.7187 167.909 41.1742C167.355 40.6297 167.074 39.8402 167.074 38.7966V36.9997C167.074 35.9561 167.355 35.1666 167.909 34.6221C168.471 34.0776 169.215 33.8054 170.15 33.8054C171.085 33.8054 171.847 34.0776 172.401 34.6221C172.954 35.1666 173.236 35.9561 173.236 36.9997V38.7966C173.236 39.8402 172.954 40.6297 172.401 41.1742C171.838 41.7187 171.094 41.9909 170.15 41.9909ZM170.15 41.147C170.831 41.147 171.357 40.9382 171.738 40.5299C172.11 40.1215 172.301 39.5498 172.301 38.8238V36.9544C172.301 36.2284 172.11 35.6567 171.738 35.2483C171.366 34.8399 170.84 34.6312 170.15 34.6312C169.46 34.6312 168.952 34.8399 168.58 35.2483C168.208 35.6567 168.018 36.2284 168.018 36.9544V38.8238C168.018 39.5498 168.208 40.1215 168.58 40.5299C168.952 40.9382 169.479 41.147 170.15 41.147Z" fill="#002E3B"/>
<path d="M178.181 41.8366V33.9687H180.014L182.755 41.2467H182.9V33.9687H183.835V41.8366H182.002L179.27 34.5495H179.116V41.8366H178.181Z" fill="#002E3B"/>
<path d="M195.288 41.8366V33.9687H196.231V40.9836H200.215V41.8366H195.288Z" fill="#002E3B"/>
<path d="M206.731 41.8366V34.8217H204.199V33.9687H210.207V34.8217H207.675V41.8366H206.731Z" fill="#002E3B"/>
<path d="M214.408 41.8366V40.9926H215.506V34.8127H214.408V33.9687H217.476C218.51 33.9687 219.309 34.2319 219.88 34.7582C220.452 35.2845 220.733 36.0922 220.733 37.1721V38.6332C220.733 39.7312 220.452 40.5298 219.88 41.0562C219.309 41.5825 218.51 41.8366 217.476 41.8366H214.408ZM216.45 40.9836H217.476C218.238 40.9836 218.819 40.793 219.209 40.4209C219.599 40.0489 219.799 39.4681 219.799 38.6785V37.1358C219.799 36.3372 219.599 35.7474 219.209 35.3844C218.819 35.0214 218.247 34.8308 217.476 34.8308H216.45V40.9836Z" fill="#002E3B"/>
</svg>
