<svg width="231" height="48" viewBox="0 0 231 48" fill="none" xmlns="http://www.w3.org/2000/svg">
<path d="M48 0H0V4.23831H48V0Z" fill="#C0972D"/>
<path d="M8.12265 31.2984L10.2185 29.2026V29.0163H10.3955L17.1116 22.3095L18.8442 20.5769L20.5768 18.835L20.5861 18.8257H35.5552H48V14.5874H43.7617H18.8349L16.711 16.7112L0 33.4129H5.99884L8.12265 31.2984Z" fill="#C0972D"/>
<path d="M0 43.7615V47.9999H48V45.876V43.7615V33.4126V31.2981V29.1743H20.5768V33.4126H43.7617V43.7615H0Z" fill="#C0972D"/>
<path d="M66 22.5071H67.8422V14.6664H75.2201V13.1146H67.8422V7.9238H77.2075V6.28125H66V22.5071Z" fill="#F5F5F5"/>
<path d="M79.0859 7.89658H81.3002V20.8918H79.0859V22.5071H85.3657V20.8918H83.1424V7.89658H85.3657V6.28125H79.0859V7.89658Z" fill="#F5F5F5"/>
<path d="M100.149 21.2728C99.9219 21.1367 99.7676 20.9008 99.7041 20.5559C99.6405 20.2111 99.5952 19.8027 99.577 19.349C99.5589 18.8862 99.5226 18.4143 99.459 17.9333C99.4046 17.4523 99.2866 16.9986 99.1142 16.5811C98.9418 16.1546 98.6605 15.8188 98.2793 15.5557C97.8982 15.2925 97.3537 15.1655 96.664 15.1655C97.5079 15.1655 98.2158 14.9749 98.7784 14.5937C99.3411 14.2126 99.7676 13.6953 100.049 13.051C100.33 12.4067 100.466 11.6989 100.466 10.9366C100.466 9.74777 100.212 8.81305 99.7041 8.14151C99.1959 7.46997 98.4608 6.99808 97.517 6.71676C96.5642 6.43544 95.4026 6.29932 94.0141 6.29932H88.6509V22.5252H90.5203V15.5194C91.8997 15.5012 93.0431 15.4922 93.9506 15.4922C94.8581 15.4922 95.575 15.5557 96.1104 15.6918C96.6458 15.8279 97.0451 16.0548 97.3083 16.3815C97.5715 16.7082 97.7348 17.171 97.8165 17.779C97.8891 18.387 97.9345 19.1675 97.9345 20.1294C97.9345 20.9189 98.0615 21.5088 98.3247 21.9172C98.5879 22.3165 98.9055 22.5796 99.2866 22.6976C99.6678 22.8156 100.04 22.8337 100.394 22.7702C100.748 22.7067 101.011 22.5887 101.183 22.4344V21.2275C100.72 21.3999 100.376 21.418 100.149 21.2819V21.2728ZM94.2954 14.0946H90.5203V7.86927H93.633C94.7492 7.86927 95.6839 7.93279 96.4462 8.05984C97.2085 8.18689 97.7893 8.46821 98.1886 8.91288C98.5969 9.35754 98.7966 10.0654 98.7966 11.0455C98.7966 11.8713 98.6332 12.4974 98.3065 12.933C97.9798 13.3686 97.4807 13.6681 96.8183 13.8405C96.1558 14.013 95.3118 14.1037 94.2954 14.1037V14.0946Z" fill="#F5F5F5"/>
<path d="M113.58 14.9569C112.944 14.6121 112.246 14.3307 111.492 14.1039C110.73 13.8861 109.968 13.6864 109.187 13.514C108.407 13.3416 107.708 13.1328 107.073 12.8969C106.438 12.661 105.929 12.3343 105.548 11.935C105.167 11.5357 104.977 10.9912 104.977 10.3196C105.013 9.54827 105.421 8.92211 106.202 8.45022C106.982 7.96925 107.971 7.7333 109.187 7.7333C109.569 7.7333 110.022 7.78775 110.53 7.88757C111.039 7.99647 111.538 8.17797 112.019 8.43206C112.5 8.69524 112.89 9.04916 113.198 9.51198C113.507 9.97479 113.643 10.5737 113.607 11.2997H115.422C115.458 10.1291 115.204 9.14898 114.641 8.35946C114.088 7.56995 113.344 6.98009 112.427 6.58987C111.501 6.19965 110.485 6 109.369 6C108.198 6 107.136 6.17243 106.202 6.5082C105.258 6.84397 104.514 7.32493 103.951 7.93295C103.398 8.55004 103.098 9.2851 103.062 10.1563C103.026 11.0638 103.189 11.8079 103.552 12.3887C103.915 12.9786 104.414 13.4414 105.049 13.7862C105.684 14.1311 106.383 14.4124 107.136 14.6393C107.899 14.8571 108.661 15.0658 109.423 15.2564C110.195 15.4469 110.893 15.6647 111.538 15.9007C112.182 16.1457 112.69 16.4633 113.08 16.8808C113.462 17.2982 113.643 17.8336 113.625 18.5052C113.625 18.6957 113.571 18.9408 113.453 19.2402C113.335 19.5397 113.135 19.8392 112.835 20.1296C112.536 20.429 112.119 20.6741 111.565 20.8737C111.02 21.0734 110.322 21.1732 109.478 21.1732C108.461 21.1732 107.626 21.0552 106.973 20.8283C106.32 20.6015 105.812 20.3111 105.449 19.9662C105.086 19.6214 104.822 19.2675 104.659 18.8954C104.496 18.5324 104.396 18.2148 104.36 17.9425C104.323 17.6703 104.305 17.5069 104.305 17.4525H102.463C102.463 18.3963 102.663 19.213 103.053 19.9027C103.443 20.5924 103.978 21.155 104.641 21.5906C105.303 22.0262 106.038 22.3438 106.855 22.5526C107.672 22.7613 108.507 22.8702 109.351 22.8702C110.521 22.8702 111.574 22.6978 112.491 22.362C113.416 22.0262 114.151 21.5452 114.714 20.9191C115.268 20.2929 115.567 19.5306 115.603 18.6322C115.64 17.7066 115.476 16.9534 115.113 16.3544C114.75 15.7555 114.251 15.2836 113.616 14.9387L113.58 14.9569Z" fill="#F5F5F5"/>
<path d="M116.375 7.89658H121.593V22.5071H123.435V7.89658H128.626V6.28125H116.375V7.89658Z" fill="#F5F5F5"/>
<path d="M146.667 14.9569C146.031 14.6121 145.333 14.3307 144.579 14.1039C143.817 13.8861 143.055 13.6864 142.274 13.514C141.494 13.3416 140.795 13.1328 140.16 12.8969C139.525 12.661 139.016 12.3343 138.635 11.935C138.254 11.5266 138.064 10.9912 138.064 10.3196C138.1 9.54827 138.508 8.92211 139.289 8.45022C140.069 7.96925 141.058 7.7333 142.274 7.7333C142.655 7.7333 143.109 7.78775 143.617 7.88757C144.126 7.99647 144.625 8.17797 145.106 8.43206C145.587 8.69524 145.977 9.04916 146.285 9.51198C146.594 9.97479 146.73 10.5737 146.694 11.2997H148.509C148.545 10.1291 148.291 9.14898 147.728 8.35946C147.175 7.56995 146.431 6.98009 145.514 6.58987C144.588 6.19965 143.572 6 142.456 6C141.285 6 140.223 6.17243 139.289 6.5082C138.345 6.84397 137.601 7.32493 137.038 7.93295C136.485 8.55004 136.185 9.2851 136.149 10.1563C136.112 11.0638 136.276 11.8079 136.639 12.3887C137.002 12.9786 137.501 13.4414 138.136 13.7862C138.771 14.1311 139.47 14.4124 140.223 14.6393C140.986 14.8571 141.748 15.0658 142.51 15.2564C143.282 15.4469 143.98 15.6647 144.625 15.9007C145.269 16.1457 145.777 16.4633 146.167 16.8808C146.549 17.2982 146.73 17.8336 146.712 18.5052C146.712 18.6957 146.657 18.9408 146.539 19.2402C146.421 19.5397 146.222 19.8392 145.922 20.1296C145.623 20.429 145.205 20.6741 144.652 20.8737C144.107 21.0734 143.409 21.1732 142.565 21.1732C141.548 21.1732 140.713 21.0552 140.06 20.8283C139.407 20.6015 138.898 20.3111 138.535 19.9662C138.172 19.6214 137.909 19.2675 137.746 18.8954C137.583 18.5324 137.483 18.2148 137.446 17.9425C137.41 17.6703 137.392 17.5069 137.392 17.4525H135.55C135.55 18.3963 135.749 19.213 136.14 19.9027C136.53 20.5924 137.065 21.155 137.728 21.5906C138.39 22.0262 139.125 22.3438 139.942 22.5526C140.759 22.7613 141.594 22.8702 142.438 22.8702C143.608 22.8702 144.661 22.6978 145.578 22.362C146.503 22.0262 147.238 21.5452 147.801 20.9191C148.354 20.2929 148.654 19.5306 148.69 18.6322C148.727 17.7066 148.563 16.9534 148.2 16.3544C147.837 15.7555 147.338 15.2836 146.703 14.9387L146.667 14.9569Z" fill="#F5F5F5"/>
<path d="M159.689 6.28125L155.279 14.8751L150.868 6.28125H148.799L154.299 16.554V22.5071H156.168V16.554L161.731 6.28125H159.689Z" fill="#F5F5F5"/>
<path d="M174.499 21.6722H174.445L166.141 6.28125H162.883V22.5071H164.762V7.11614H164.816L172.884 22.5071H176.378V6.28125H174.499V21.6722Z" fill="#F5F5F5"/>
<path d="M180.897 15.0748H188.075V13.5139H180.897V7.9238H189.945V6.28125H179.082V22.5071H190.235V20.9553H180.897V15.0748Z" fill="#F5F5F5"/>
<path d="M203.929 21.2728C203.702 21.1367 203.548 20.9008 203.484 20.5559C203.421 20.2111 203.375 19.8027 203.357 19.349C203.339 18.8952 203.303 18.4143 203.239 17.9333C203.185 17.4523 203.067 16.9986 202.894 16.5811C202.722 16.1546 202.441 15.8188 202.06 15.5557C201.678 15.2925 201.134 15.1655 200.444 15.1655C201.288 15.1655 201.996 14.9749 202.559 14.5937C203.121 14.2126 203.548 13.6953 203.829 13.051C204.111 12.4067 204.247 11.6989 204.247 10.9366C204.247 9.74777 203.993 8.81305 203.484 8.14151C202.976 7.46997 202.241 6.99808 201.297 6.71676C200.344 6.43544 199.183 6.29932 197.794 6.29932H192.431V22.5252H194.301V15.5194C195.68 15.5012 196.823 15.4922 197.731 15.4922C198.638 15.4922 199.355 15.5557 199.891 15.6918C200.426 15.8279 200.825 16.0548 201.089 16.3815C201.352 16.7082 201.515 17.171 201.597 17.779C201.669 18.387 201.715 19.1675 201.715 20.1294C201.715 20.9189 201.842 21.5088 202.105 21.9172C202.368 22.3165 202.686 22.5796 203.067 22.6976C203.448 22.8156 203.82 22.8337 204.174 22.7702C204.528 22.7067 204.791 22.5887 204.964 22.4344V21.2275C204.501 21.3999 204.156 21.418 203.929 21.2819V21.2728ZM198.076 14.0946H194.301V7.86927H197.413C198.529 7.86927 199.464 7.93279 200.226 8.05984C200.989 8.18689 201.57 8.46821 201.969 8.91288C202.377 9.35754 202.577 10.0654 202.577 11.0455C202.577 11.8713 202.414 12.4974 202.087 12.933C201.76 13.3686 201.261 13.6681 200.599 13.8405C199.936 14.013 199.092 14.1037 198.076 14.1037V14.0946Z" fill="#F5F5F5"/>
<path d="M215.282 16.3092H219.746C219.628 17.3619 219.32 18.2513 218.812 18.9591C218.304 19.6669 217.65 20.2024 216.852 20.5563C216.053 20.9102 215.145 21.0917 214.129 21.0917C212.151 21.0917 210.608 20.5018 209.501 19.3312C208.394 18.1605 207.84 16.5089 207.84 14.3763C207.84 12.2437 208.367 10.7191 209.41 9.52125C210.454 8.32337 211.996 7.72443 214.038 7.72443C215 7.72443 215.853 7.86963 216.607 8.16002C217.36 8.45042 217.995 8.88601 218.512 9.47588C219.03 10.0657 219.383 10.8371 219.583 11.799L221.371 11.5994C221.026 9.77534 220.236 8.38689 218.993 7.43403C217.75 6.48117 216.107 6.00928 214.047 6.00928C212.45 6.00928 211.062 6.34505 209.864 7.00751C208.675 7.66998 207.749 8.63191 207.087 9.9024C206.425 11.1729 206.08 12.6975 206.062 14.4852C206.062 16.2729 206.37 17.7885 206.996 19.0408C207.622 20.2931 208.512 21.246 209.664 21.9084C210.817 22.5709 212.169 22.9067 213.73 22.9067C214.692 22.9067 215.527 22.7796 216.253 22.5165C216.97 22.2533 217.578 21.9266 218.086 21.5182C218.585 21.1189 218.984 20.6833 219.284 20.2205C219.583 19.7577 219.792 19.3403 219.901 18.95H219.955L220.391 22.5255H221.716V14.8845H215.291V16.3274L215.282 16.3092Z" fill="#F5F5F5"/>
<path d="M230.237 7.89658V6.28125H223.957V7.89658H226.171V20.8918H223.957V22.5071H230.237V20.8918H228.013V7.89658H230.237Z" fill="#F5F5F5"/>
<path d="M69.0764 41.9912C68.1417 41.9912 67.3975 41.7189 66.8349 41.1745C66.2813 40.63 66 39.8404 66 38.7968V37C66 35.9564 66.2813 35.1669 66.8349 34.6224C67.3885 34.0779 68.1326 33.8057 69.0764 33.8057C70.0202 33.8057 70.7189 34.0688 71.218 34.5861C71.7172 35.1034 71.9622 35.8112 71.9622 36.7096V36.7641H71.0275V36.6733C71.0275 36.0835 70.8641 35.5934 70.5465 35.2213C70.2289 34.8493 69.7388 34.6496 69.0673 34.6496C68.3958 34.6496 67.8785 34.8583 67.5064 35.2667C67.1344 35.6751 66.9438 36.2468 66.9438 36.9819V38.8241C66.9438 39.5591 67.1344 40.1309 67.5064 40.5392C67.8785 40.9476 68.4048 41.1563 69.0673 41.1563C69.7298 41.1563 70.2289 40.9657 70.5465 40.5846C70.8641 40.2034 71.0275 39.7225 71.0275 39.1326V38.9511H71.9622V39.0963C71.9622 39.9947 71.7172 40.7026 71.218 41.2198C70.7189 41.7371 70.002 42.0003 69.0764 42.0003V41.9912Z" fill="#F5F5F5"/>
<path d="M79.676 41.9912C78.7413 41.9912 77.9881 41.719 77.4345 41.1745C76.8809 40.63 76.5996 39.8405 76.5996 38.7968V37C76.5996 35.9564 76.8809 35.1669 77.4345 34.6224C77.9971 34.0779 78.7413 33.8057 79.676 33.8057C80.6107 33.8057 81.373 34.0779 81.9266 34.6224C82.4801 35.1669 82.7614 35.9564 82.7614 37V38.7968C82.7614 39.8405 82.4801 40.63 81.9266 41.1745C81.3639 41.719 80.6198 41.9912 79.676 41.9912ZM79.676 41.1472C80.3566 41.1472 80.8829 40.9385 81.2641 40.5301C81.6362 40.1218 81.8267 39.5501 81.8267 38.8241V36.9546C81.8267 36.2287 81.6362 35.6569 81.2641 35.2486C80.892 34.8402 80.3657 34.6315 79.676 34.6315C78.9863 34.6315 78.4781 34.8402 78.106 35.2486C77.734 35.6569 77.5434 36.2287 77.5434 36.9546V38.8241C77.5434 39.5501 77.734 40.1218 78.106 40.5301C78.4781 40.9385 79.0044 41.1472 79.676 41.1472Z" fill="#F5F5F5"/>
<path d="M87.7163 41.8367V33.9688H89.5494L92.29 41.2468H92.4352V33.9688H93.3699V41.8367H91.5368L88.8053 34.5495H88.651V41.8367H87.7163Z" fill="#F5F5F5"/>
<path d="M101.174 41.991C100.603 41.991 100.094 41.8912 99.6497 41.6915C99.196 41.4919 98.8421 41.1833 98.588 40.775C98.3339 40.3666 98.1978 39.8584 98.1978 39.2413V39.0054H99.1325V39.2413C99.1325 39.8947 99.323 40.3757 99.7042 40.6933C100.085 41.0109 100.575 41.1743 101.174 41.1743C101.773 41.1743 102.254 41.0381 102.581 40.7568C102.899 40.4755 103.062 40.1306 103.062 39.7132C103.062 39.4228 102.989 39.1869 102.844 39.0144C102.699 38.842 102.49 38.6968 102.227 38.5879C101.964 38.479 101.655 38.3792 101.301 38.2975L100.721 38.1523C100.267 38.0343 99.8585 37.8892 99.5045 37.7167C99.1506 37.5443 98.8784 37.3174 98.6787 37.0361C98.4791 36.7548 98.3793 36.3918 98.3793 35.9471C98.3793 35.5025 98.4881 35.1213 98.715 34.8037C98.9328 34.4861 99.2504 34.232 99.6497 34.0596C100.049 33.8871 100.512 33.7964 101.038 33.7964C101.565 33.7964 102.045 33.8871 102.472 34.0686C102.899 34.2501 103.225 34.5224 103.47 34.8763C103.715 35.2302 103.833 35.684 103.833 36.2194V36.6913H102.899V36.2194C102.899 35.8382 102.817 35.5297 102.654 35.2937C102.49 35.0578 102.272 34.8854 101.991 34.7765C101.71 34.6676 101.392 34.604 101.029 34.604C100.512 34.604 100.094 34.722 99.7768 34.9489C99.4592 35.1758 99.3049 35.5025 99.3049 35.9199C99.3049 36.2012 99.3684 36.419 99.5045 36.5914C99.6407 36.7639 99.8312 36.9 100.076 37.0089C100.321 37.1178 100.621 37.2176 100.966 37.2993L101.546 37.4445C102 37.5443 102.418 37.6714 102.781 37.8438C103.144 38.0162 103.434 38.2431 103.652 38.5335C103.87 38.8239 103.978 39.1959 103.978 39.6587C103.978 40.1216 103.86 40.5299 103.634 40.8748C103.398 41.2196 103.071 41.4919 102.654 41.6824C102.227 41.873 101.737 41.9728 101.165 41.9728L101.174 41.991Z" fill="#F5F5F5"/>
<path d="M110.748 41.8367V34.8218H108.216V33.9688H114.224V34.8218H111.692V41.8367H110.748Z" fill="#F5F5F5"/>
<path d="M118.797 41.8367V33.9688H121.983C122.473 33.9688 122.899 34.0504 123.271 34.2229C123.643 34.3953 123.934 34.6312 124.142 34.9398C124.351 35.2483 124.46 35.6204 124.46 36.056V36.183C124.46 36.7003 124.333 37.1087 124.088 37.4081C123.843 37.7076 123.553 37.9072 123.208 38.0161V38.1704C123.48 38.1704 123.698 38.2612 123.879 38.4336C124.061 38.606 124.142 38.8601 124.142 39.1959V41.8367H123.208V39.3048C123.208 39.0779 123.144 38.9055 123.026 38.7875C122.899 38.6695 122.718 38.606 122.473 38.606H119.75V41.8367H118.806H118.797ZM119.741 37.753H121.892C122.409 37.753 122.808 37.6259 123.09 37.3809C123.371 37.1268 123.516 36.782 123.516 36.3282V36.2465C123.516 35.7928 123.38 35.448 123.099 35.1939C122.818 34.9398 122.418 34.8218 121.892 34.8218H119.741V37.753Z" fill="#F5F5F5"/>
<path d="M132.11 41.9909C131.53 41.9909 131.012 41.882 130.586 41.6733C130.159 41.4646 129.815 41.147 129.57 40.7386C129.325 40.3302 129.207 39.813 129.207 39.205V33.9688H130.141V39.2231C130.141 39.8674 130.314 40.3484 130.659 40.6751C131.003 41.0018 131.484 41.156 132.11 41.156C132.737 41.156 133.218 40.9927 133.562 40.6751C133.907 40.3575 134.08 39.8674 134.08 39.2231V33.9688H135.024V39.205C135.024 39.813 134.906 40.3212 134.661 40.7386C134.416 41.1561 134.08 41.4646 133.644 41.6733C133.209 41.882 132.691 41.9909 132.11 41.9909Z" fill="#F5F5F5"/>
<path d="M142.973 41.9912C142.038 41.9912 141.294 41.7189 140.731 41.1745C140.178 40.63 139.896 39.8404 139.896 38.7968V37C139.896 35.9564 140.178 35.1669 140.731 34.6224C141.285 34.0779 142.029 33.8057 142.973 33.8057C143.917 33.8057 144.615 34.0688 145.115 34.5861C145.614 35.1034 145.859 35.8112 145.859 36.7096V36.7641H144.924V36.6733C144.924 36.0835 144.761 35.5934 144.443 35.2213C144.125 34.8493 143.635 34.6496 142.964 34.6496C142.292 34.6496 141.775 34.8583 141.403 35.2667C141.031 35.6751 140.84 36.2468 140.84 36.9819V38.8241C140.84 39.5591 141.031 40.1309 141.403 40.5392C141.775 40.9476 142.301 41.1563 142.964 41.1563C143.626 41.1563 144.125 40.9657 144.443 40.5846C144.761 40.2034 144.924 39.7225 144.924 39.1326V38.9511H145.859V39.0963C145.859 39.9947 145.614 40.7026 145.115 41.2198C144.615 41.7371 143.898 42.0003 142.973 42.0003V41.9912Z" fill="#F5F5F5"/>
<path d="M152.656 41.8367V34.8218H150.124V33.9688H156.132V34.8218H153.6V41.8367H152.656Z" fill="#F5F5F5"/>
<path d="M160.705 41.8367V33.9688H161.649V41.8367H160.705Z" fill="#F5F5F5"/>
<path d="M169.68 41.9912C168.746 41.9912 167.992 41.719 167.439 41.1745C166.885 40.63 166.604 39.8405 166.604 38.7968V37C166.604 35.9564 166.885 35.1669 167.439 34.6224C168.002 34.0779 168.746 33.8057 169.68 33.8057C170.615 33.8057 171.377 34.0779 171.931 34.6224C172.485 35.1669 172.766 35.9564 172.766 37V38.7968C172.766 39.8405 172.485 40.63 171.931 41.1745C171.368 41.719 170.624 41.9912 169.68 41.9912ZM169.68 41.1472C170.361 41.1472 170.887 40.9385 171.268 40.5301C171.641 40.1218 171.831 39.5501 171.831 38.8241V36.9546C171.831 36.2287 171.641 35.6569 171.268 35.2486C170.896 34.8402 170.37 34.6315 169.68 34.6315C168.991 34.6315 168.482 34.8402 168.11 35.2486C167.738 35.6569 167.548 36.2287 167.548 36.9546V38.8241C167.548 39.5501 167.738 40.1218 168.11 40.5301C168.482 40.9385 169.009 41.1472 169.68 41.1472Z" fill="#F5F5F5"/>
<path d="M177.711 41.8367V33.9688H179.545L182.285 41.2468H182.43V33.9688H183.365V41.8367H181.532L178.8 34.5495H178.646V41.8367H177.711Z" fill="#F5F5F5"/>
<path d="M194.818 41.8367V33.9688H195.762V40.9836H199.746V41.8367H194.818Z" fill="#F5F5F5"/>
<path d="M206.261 41.8367V34.8218H203.729V33.9688H209.737V34.8218H207.205V41.8367H206.261Z" fill="#F5F5F5"/>
<path d="M213.938 41.8367V40.9927H215.037V34.8127H213.938V33.9688H217.006C218.04 33.9688 218.839 34.2319 219.411 34.7583C219.982 35.2846 220.264 36.0923 220.264 37.1722V38.6332C220.264 39.7313 219.982 40.5299 219.411 41.0562C218.839 41.5826 218.04 41.8367 217.006 41.8367H213.938ZM215.98 40.9836H217.006C217.768 40.9836 218.349 40.793 218.739 40.421C219.129 40.0489 219.329 39.4681 219.329 38.6786V37.1359C219.329 36.3373 219.129 35.7474 218.739 35.3844C218.349 35.0214 217.777 34.8309 217.006 34.8309H215.98V40.9836Z" fill="#F5F5F5"/>
</svg>
